<svg xmlns="http://www.w3.org/2000/svg" width="3034" height="1381" viewBox="0 0 3034 1381" version="1.1">
	<path d="M -0 690.500 L -0 1381.001 1517.250 1380.750 L 3034.500 1380.500 3034.751 690.250 L 3035.001 -0 1517.501 -0 L 0 0 -0 690.500 M 0.497 691 C 0.497 1070.775, 0.611 1226.137, 0.750 1036.250 C 0.889 846.362, 0.889 535.637, 0.750 345.750 C 0.611 155.862, 0.497 311.225, 0.497 691 M 83 690.500 L 83 1298 1517.250 1298 L 2951.500 1298 2951.500 690.500 L 2951.500 83 1517.250 83 L 83 83 83 690.500 M 165.667 165.666 C 165.300 166.033, 165 402.508, 165 691.167 L 165 1216.001 1516.750 1215.750 L 2868.500 1215.500 2868.500 690.500 L 2868.500 165.500 1517.417 165.250 C 774.321 165.112, 166.034 165.299, 165.667 165.666 M 1431.522 319.250 C 1430.932 321.820, 1410 440.712, 1410 441.490 C 1410 441.771, 1449.825 442, 1498.500 442 C 1547.175 442, 1587 441.789, 1587 441.532 C 1587 440.830, 1607.953 321.857, 1608.535 319.250 L 1609.038 317 1520.538 317 L 1432.038 317 1431.522 319.250 M 2117.515 319.250 C 2116.877 321.999, 2096 440.499, 2096 441.376 C 2096 441.719, 2135.825 442, 2184.500 442 C 2233.175 442, 2273 441.736, 2273 441.414 C 2273 440.474, 2294.060 321.730, 2294.666 319.250 L 2295.217 317 2206.627 317 L 2118.038 317 2117.515 319.250 M 556 486.034 C 476.905 492.188, 408.094 523.811, 360.592 575.839 C 317.778 622.731, 290.882 688.596, 285.953 758.622 C 282.024 814.430, 298.053 862.594, 332 896.984 C 369.855 935.333, 429.203 955.982, 501.605 955.997 C 581.076 956.012, 651.904 932.363, 704 888.416 C 738.204 859.563, 765.159 820.473, 781.862 775.500 C 796.976 734.808, 804.293 687.435, 801.094 651 C 797.104 605.569, 782.346 572.134, 753.601 543.404 C 722.812 512.631, 680.284 493.971, 626 487.415 C 610.804 485.579, 571.743 484.809, 556 486.034 M 1079 486.032 C 1012.491 492.373, 955.757 515.494, 906.500 556.333 C 896.944 564.257, 877.770 584.053, 869.047 595.002 C 828.852 645.455, 806.868 707.812, 806.644 772 C 806.545 800.243, 810.195 821.192, 819.100 843.500 C 843.367 904.288, 900.650 943.186, 981.141 953.536 C 998.385 955.754, 1032.159 956.497, 1051.500 955.085 C 1133.489 949.099, 1200.297 922.785, 1245.858 878.532 C 1259.782 865.008, 1267.838 855.461, 1277.381 841.179 C 1283.621 831.839, 1295 811.435, 1295 809.585 C 1295 809.263, 1257.013 809, 1210.585 809 L 1126.170 809 1122.674 813.763 C 1108.384 833.229, 1084.524 845.836, 1058.638 847.597 C 1023.315 849.999, 993.164 831.133, 983.372 800.500 C 980.549 791.671, 979.223 776.377, 980.437 766.661 L 981.144 761 1149.603 761 C 1283.453 761, 1318.160 760.743, 1318.534 759.750 C 1318.794 759.063, 1319.906 752.200, 1321.006 744.500 C 1332.384 664.865, 1317.788 600.429, 1277.645 553.071 C 1247.999 518.096, 1200.194 494.462, 1145 487.493 C 1130.036 485.604, 1092.265 484.768, 1079 486.032 M 1798 486.026 C 1740.934 490.922, 1694.902 505.321, 1658 529.820 C 1643.070 539.731, 1623.123 559.313, 1614.123 572.892 C 1591.734 606.672, 1582.575 652.023, 1591.683 684 C 1598.775 708.900, 1617.128 729.077, 1645.725 743.416 C 1669.087 755.129, 1690.119 761.345, 1745.627 772.941 C 1781.296 780.393, 1797.655 784.805, 1808.559 789.915 C 1818.964 794.791, 1823.569 798.261, 1827.178 803.946 C 1830.679 809.461, 1831.006 817.763, 1828.060 826.327 C 1820.867 847.233, 1800.649 858.214, 1769 858.406 C 1754.651 858.493, 1748.447 857.446, 1739.147 853.367 C 1721.888 845.797, 1713.372 832.182, 1714.151 813.404 L 1714.500 805 1630.122 805 L 1545.745 805 1546.307 824.750 C 1547.027 850.014, 1549.938 863.263, 1558.338 879.500 C 1579.662 920.718, 1625.335 945.167, 1696.970 953.709 C 1715.275 955.891, 1771.685 956.163, 1791.500 954.164 C 1832.779 950, 1868.166 941.994, 1897.810 930.110 C 1906.607 926.584, 1926.146 916.534, 1934.064 911.463 C 1977.486 883.653, 2003.533 844.603, 2010.593 796.731 C 2012.687 782.533, 2012.061 763.959, 2009.111 752.725 C 2006.771 743.815, 2000.698 731.207, 1995.117 723.672 C 1985.751 711.027, 1969.204 698.094, 1950.270 688.619 C 1925.108 676.027, 1900.883 668.757, 1831.605 653.008 C 1785.743 642.582, 1766.824 634.087, 1762.884 622.149 C 1760.265 614.212, 1764.399 602.574, 1772.485 595.120 C 1780.715 587.534, 1792.159 583.703, 1810.500 582.396 C 1833.545 580.753, 1851.267 588.510, 1858.461 603.391 C 1860.746 608.117, 1863.373 620.221, 1862.763 623.211 C 1862.550 624.253, 1877.869 624.549, 1942.618 624.756 L 2022.736 625.012 2023.357 621.256 C 2025.058 610.966, 2022.939 588.047, 2018.997 574.090 C 2005.114 524.937, 1957.833 495.991, 1877.500 487.466 C 1860.467 485.659, 1812.424 484.788, 1798 486.026 M 2490 485.624 C 2446.492 488.219, 2403.794 498.605, 2370 514.812 C 2309.602 543.778, 2274.583 595.789, 2274.599 656.500 C 2274.603 668.539, 2275.032 673.219, 2276.773 680.209 C 2281.872 700.677, 2292.691 716.886, 2309.945 729.910 C 2334.774 748.651, 2362.618 758.571, 2429.500 772.503 C 2471.401 781.231, 2484.931 784.965, 2497.500 791.270 C 2505.768 795.418, 2509.869 798.734, 2513.178 803.946 C 2519.878 814.500, 2514.521 833.524, 2501.764 844.484 C 2495.998 849.437, 2485.190 854.437, 2475.500 856.633 C 2465.531 858.893, 2444.070 859.151, 2436 857.107 C 2411.707 850.957, 2399.225 835.739, 2400.151 813.404 L 2400.500 805 2316.250 805 L 2232 805 2232.006 820.250 C 2232.009 828.638, 2232.657 839.777, 2233.445 845.004 C 2243.258 910.099, 2300.263 947.891, 2399.500 955.092 C 2429.044 957.236, 2478.078 955.127, 2508 950.425 C 2561.998 941.940, 2610.116 922.406, 2640.373 896.686 C 2671.209 870.474, 2689.324 838.867, 2695.987 799.651 C 2705.667 742.678, 2679.948 704.285, 2615.500 679.500 C 2596.833 672.321, 2578.630 667.127, 2545.500 659.526 C 2534.500 657.002, 2519.468 653.546, 2512.095 651.846 C 2493 647.443, 2473.754 641.456, 2465.553 637.368 C 2457.319 633.263, 2450.499 627.041, 2448.890 622.167 C 2446.397 614.613, 2450.291 602.849, 2457.669 595.644 C 2466.540 586.984, 2480.897 582.713, 2501.500 582.607 C 2519.787 582.513, 2529.286 585.531, 2537.795 594.141 C 2544.203 600.624, 2547.251 607.621, 2547.800 617.111 L 2548.257 625 2628.498 625 L 2708.738 625 2709.358 621.250 C 2710.386 615.034, 2710.045 603.117, 2708.523 592 C 2703.243 553.434, 2684.202 527.631, 2647.361 509.122 C 2625.628 498.203, 2599.111 491.354, 2563.500 487.463 C 2550.021 485.990, 2503.418 484.824, 2490 485.624 M 1400 498.469 C 1400 498.998, 1374.335 644.619, 1362.014 714 C 1357.569 739.025, 1351.943 770.750, 1349.510 784.500 C 1342.592 823.597, 1322 941.822, 1322 942.442 C 1322 942.749, 1361.740 943, 1410.312 943 L 1498.624 943 1503.822 913.250 C 1506.680 896.887, 1513.974 855.600, 1520.029 821.500 C 1530.407 763.053, 1545.525 677.044, 1562.564 579.500 C 1573.709 515.697, 1575.996 502.733, 1576.543 500.250 L 1577.038 498 1488.519 498 C 1439.834 498, 1400 498.211, 1400 498.469 M 2084.081 509.750 C 2082.158 520.357, 2064.242 621.903, 2057.044 663 C 2055.454 672.075, 2051.666 693.450, 2048.626 710.500 C 2037.354 773.716, 2024.994 844.009, 2010.453 927.601 C 2009.104 935.357, 2008 941.994, 2008 942.351 C 2008 942.708, 2047.614 943, 2096.031 943 C 2165.549 943, 2184.158 942.737, 2184.515 941.750 C 2184.764 941.063, 2188.594 920.025, 2193.028 895 C 2206.258 820.324, 2230.512 682.610, 2236.001 651 C 2245.856 594.242, 2261.995 502.480, 2262.514 500.250 L 2263.038 498 2174.625 498 L 2086.212 498 2084.081 509.750 M 1082.500 593.638 C 1038.863 598.276, 1010.068 621.741, 999.470 661.300 C 998.114 666.360, 997.004 670.615, 997.003 670.756 C 997.001 670.897, 1033.112 670.897, 1077.250 670.756 L 1157.500 670.500 1157.441 657.500 C 1157.389 646.098, 1157.060 643.599, 1154.762 637.165 C 1147.269 616.192, 1129.918 600.278, 1109 595.197 C 1103.779 593.928, 1088.321 593.019, 1082.500 593.638 M 555.925 604.915 C 511.553 611.158, 479.352 653.142, 468.080 719.449 C 459.839 767.924, 465.187 803.149, 483.590 821.609 C 494.688 832.740, 509.099 837.674, 527.500 836.643 C 540.315 835.925, 547.238 834.098, 558.979 828.337 C 567.072 824.366, 569.858 822.285, 578.047 814.093 C 587.939 804.198, 594.202 795.553, 600.232 783.468 C 613.980 755.918, 624.011 712.783, 623.994 681.289 C 623.980 654.655, 617.344 633.213, 604.922 619.656 C 598.980 613.172, 592.460 608.988, 584.310 606.432 C 578.542 604.622, 563.657 603.827, 555.925 604.915" stroke="none" fill="#000000" fill-rule="evenodd"/>
</svg>