<svg xmlns="http://www.w3.org/2000/svg" width="3034" height="1381" viewBox="0 0 3034 1381"><path fill="#000" fill-rule="evenodd" d="M0 690.5v690.501l1517.25-.251 1517.25-.25.251-690.25.25-690.25H0zm.497.5c0 379.775.114 535.137.253 345.25.139-189.888.139-500.613 0-690.5C.611 155.862.497 311.225.497 691M83 690.5V1298h2868.5V83H83zm82.667-524.834c-.367.367-.667 236.842-.667 525.501v524.834l1351.75-.251 1351.75-.25v-1050l-1351.083-.25c-743.096-.138-1351.383.049-1351.75.416M1431.522 319.25c-.59 2.57-21.522 121.462-21.522 122.24 0 .281 39.825.51 88.5.51s88.5-.211 88.5-.468c0-.702 20.953-119.675 21.535-122.282l.503-2.25h-177zm685.993 0c-.638 2.749-21.515 121.249-21.515 122.126 0 .343 39.825.624 88.5.624s88.5-.264 88.5-.586c0-.94 21.06-119.684 21.666-122.164l.551-2.25h-177.179zM556 486.034c-79.095 6.154-147.906 37.777-195.408 89.805-42.814 46.892-69.71 112.757-74.639 182.783-3.929 55.808 12.1 103.972 46.047 138.362 37.855 38.349 97.203 58.998 169.605 59.013 79.471.015 150.299-23.634 202.395-67.581 34.204-28.853 61.159-67.943 77.862-112.916 15.114-40.692 22.431-88.065 19.232-124.5-3.99-45.431-18.748-78.866-47.493-107.596-30.789-30.773-73.317-49.433-127.601-55.989-15.196-1.836-54.257-2.606-70-1.381m523-.002c-66.509 6.341-123.243 29.462-172.5 70.301-9.556 7.924-28.73 27.72-37.453 38.669-40.195 50.453-62.179 112.81-62.403 176.998-.099 28.243 3.551 49.192 12.456 71.5 24.267 60.788 81.55 99.686 162.041 110.036 17.244 2.218 51.018 2.961 70.359 1.549 81.989-5.986 148.797-32.3 194.358-76.553 13.924-13.524 21.98-23.071 31.523-37.353 6.24-9.34 17.619-29.744 17.619-31.594 0-.322-37.987-.585-84.415-.585h-84.415l-3.496 4.763c-14.29 19.466-38.15 32.073-64.036 33.834-35.323 2.402-65.474-16.464-75.266-47.097-2.823-8.829-4.149-24.123-2.935-33.839l.707-5.661h168.459c133.85 0 168.557-.257 168.931-1.25.26-.687 1.372-7.55 2.472-15.25 11.378-79.635-3.218-144.071-43.361-191.429-29.646-34.975-77.451-58.609-132.645-65.578-14.964-1.889-52.735-2.725-66-1.461m719-.006c-57.066 4.896-103.098 19.295-140 43.794-14.93 9.911-34.877 29.493-43.877 43.072-22.389 33.78-31.548 79.131-22.44 111.108 7.092 24.9 25.445 45.077 54.042 59.416 23.362 11.713 44.394 17.929 99.902 29.525 35.669 7.452 52.028 11.864 62.932 16.974 10.405 4.876 15.01 8.346 18.619 14.031 3.501 5.515 3.828 13.817.882 22.381-7.193 20.906-27.411 31.887-59.06 32.079-14.349.087-20.553-.96-29.853-5.039-17.259-7.57-25.775-21.185-24.996-39.963l.349-8.404h-168.755l.562 19.75c.72 25.264 3.631 38.513 12.031 54.75 21.324 41.218 66.997 65.667 138.632 74.209 18.305 2.182 74.715 2.454 94.53.455 41.279-4.164 76.666-12.17 106.31-24.054 8.797-3.526 28.336-13.576 36.254-18.647 43.422-27.81 69.469-66.86 76.529-114.732 2.094-14.198 1.468-32.772-1.482-44.006-2.34-8.91-8.413-21.518-13.994-29.053-9.366-12.645-25.913-25.578-44.847-35.053-25.162-12.592-49.387-19.862-118.665-35.611-45.862-10.426-64.781-18.921-68.721-30.859-2.619-7.937 1.515-19.575 9.601-27.029 8.23-7.586 19.674-11.417 38.015-12.724 23.045-1.643 40.767 6.114 47.961 20.995 2.285 4.726 4.912 16.83 4.302 19.82-.213 1.042 15.106 1.338 79.855 1.545l80.118.256.621-3.756c1.701-10.29-.418-33.209-4.36-47.166-13.883-49.153-61.164-78.099-141.497-86.624-17.033-1.807-65.076-2.678-79.5-1.44m692-.402c-43.508 2.595-86.206 12.981-120 29.188-60.398 28.966-95.417 80.977-95.401 141.688.004 12.039.433 16.719 2.174 23.709 5.099 20.468 15.918 36.677 33.172 49.701 24.829 18.741 52.673 28.661 119.555 42.593 41.901 8.728 55.431 12.462 68 18.767 8.268 4.148 12.369 7.464 15.678 12.676 6.7 10.554 1.343 29.578-11.414 40.538-5.766 4.953-16.574 9.953-26.264 12.149-9.969 2.26-31.43 2.518-39.5.474-24.293-6.15-36.775-21.368-35.849-43.703l.349-8.404H2232l.006 15.25c.003 8.388.651 19.527 1.439 24.754 9.813 65.095 66.818 102.887 166.055 110.088 29.544 2.144 78.578.035 108.5-4.667 53.998-8.485 102.116-28.019 132.373-53.739 30.836-26.212 48.951-57.819 55.614-97.035 9.68-56.973-16.039-95.366-80.487-120.151-18.667-7.179-36.87-12.373-70-19.974-11-2.524-26.032-5.98-33.405-7.68-19.095-4.403-38.341-10.39-46.542-14.478-8.234-4.105-15.054-10.327-16.663-15.201-2.493-7.554 1.401-19.318 8.779-26.523 8.871-8.66 23.228-12.931 43.831-13.037 18.287-.094 27.786 2.924 36.295 11.534 6.408 6.483 9.456 13.48 10.005 22.97l.457 7.889h160.481l.62-3.75c1.028-6.216.687-18.133-.835-29.25-5.28-38.566-24.321-64.369-61.162-82.878-21.733-10.919-48.25-17.768-83.861-21.659-13.479-1.473-60.082-2.639-73.5-1.839m-1090 12.845c0 .529-25.665 146.15-37.986 215.531-4.445 25.025-10.071 56.75-12.504 70.5-6.918 39.097-27.51 157.322-27.51 157.942 0 .307 39.74.558 88.312.558h88.312l5.198-29.75c2.858-16.363 10.152-57.65 16.207-91.75 10.378-58.447 25.496-144.456 42.535-242 11.145-63.803 13.432-76.767 13.979-79.25l.495-2.25h-88.519c-48.685 0-88.519.211-88.519.469m684.081 11.281c-1.923 10.607-19.839 112.153-27.037 153.25-1.59 9.075-5.378 30.45-8.418 47.5-11.272 63.216-23.632 133.509-38.173 217.101-1.349 7.756-2.453 14.393-2.453 14.75s39.614.649 88.031.649c69.518 0 88.127-.263 88.484-1.25.249-.687 4.079-21.725 8.513-46.75 13.23-74.676 37.484-212.39 42.973-244 9.855-56.758 25.994-148.52 26.513-150.75l.524-2.25h-176.826zM1082.5 593.638c-43.637 4.638-72.432 28.103-83.03 67.662-1.356 5.06-2.466 9.315-2.467 9.456-.002.141 36.109.141 80.247 0l80.25-.256-.059-13c-.052-11.402-.381-13.901-2.679-20.335-7.493-20.973-24.844-36.887-45.762-41.968-5.221-1.269-20.679-2.178-26.5-1.559m-526.575 11.277c-44.372 6.243-76.573 48.227-87.845 114.534-8.241 48.475-2.893 83.7 15.51 102.16 11.098 11.131 25.509 16.065 43.91 15.034 12.815-.718 19.738-2.545 31.479-8.306 8.093-3.971 10.879-6.052 19.068-14.244 9.892-9.895 16.155-18.54 22.185-30.625 13.748-27.55 23.779-70.685 23.762-102.179-.014-26.634-6.65-48.076-19.072-61.633-5.942-6.484-12.462-10.668-20.612-13.224-5.768-1.81-20.653-2.605-28.385-1.517"/></svg>